<svg width="22" height="19" xmlns="http://www.w3.org/2000/svg" fill="none">

 <g>
  <title>Layer 1</title>
  <path id="svg_1" fill="black" d="m19.2444,2.74849c-1.6819,-1.663 -4.4201,-1.66465 -6.1041,-0.00494l-2.1492,2.16848l-2.17094,-2.14654c-1.68609,-1.68367 -4.42002,-1.67614 -6.0761,-0.02226l-0.00528,0.00527c-0.80794,0.79886 -1.23878,1.85473 -1.23878,2.99646c0,1.12602 0.44247,2.19002 1.24468,3.00232l8.23572,8.14322l8.264,-8.17127c1.6771,-1.65829 1.6694,-4.3364 0.0053,-5.96551l-0.0053,-0.00523zm-8.264,16.25151l-9.2963,-9.19194c-1.07782,-1.08793 -1.6841,-2.53111 -1.6841,-4.0631c0,-1.53199 0.58382,-2.97517 1.6841,-4.0631c2.24547,-2.24248 5.92805,-2.24248 8.19597,0.0222l1.10033,1.08794l1.1002,-1.11014c2.268,-2.24248 5.9505,-2.24248 8.2185,0c2.2679,2.22027 2.2679,5.86152 0,8.104l-9.3187,9.21414z" clip-rule="evenodd" fill-rule="evenodd"/>
  <path stroke="#000000" d="m10.35829,4.92246c0,-0.10695 -0.01047,-0.19513 -0.2139,-0.32086c-0.09098,-0.05623 -0.2139,-0.10695 -0.2139,-0.10695c-0.10695,0 -0.1696,0.0443 -0.32086,-0.10695c-0.07563,-0.07563 -0.03133,-0.24523 -0.10695,-0.32086c-0.07563,-0.07563 -0.1696,0.15125 -0.32086,0c-0.15125,-0.15125 -0.10695,-0.2139 -0.10695,-0.32086c0,-0.10695 -0.10695,-0.10695 -0.2139,-0.2139c-0.10695,-0.10695 -0.2139,-0.2139 -0.2139,-0.2139c-0.10695,0 -0.2139,-0.10695 -0.32086,-0.10695c-0.10695,0 -0.2139,-0.10695 -0.32086,-0.10695c-0.10695,0 -0.32086,-0.32086 -0.64171,-0.53476c0,0 -0.10695,-0.10695 -0.2139,-0.10695c-0.10695,0 -0.24523,-0.03133 -0.32086,-0.10695c-0.07563,-0.07563 -0.11509,-0.06602 -0.2139,-0.10695c-0.13974,-0.05788 -0.10695,-0.2139 -0.2139,-0.2139c-0.10695,0 -0.32086,-0.10695 -0.32086,-0.10695c-0.10695,0 -0.27655,0.15125 -0.42781,0c-0.07563,-0.07563 0,-0.10695 -0.2139,-0.10695c-0.10695,0 -0.2139,0 -0.32086,0c-0.10695,0 -0.10695,0.10695 -0.2139,0.10695c-0.10695,0 -0.03133,0.03133 -0.10695,0.10695c-0.07563,0.07563 -0.10695,0.2139 -0.32086,0.32086c0,0 -0.10695,0 -0.10695,0c0,0.10695 -0.13828,0.03133 -0.2139,0.10695c-0.07563,0.07563 -0.10695,0.10695 -0.2139,0.2139c0,0 -0.10695,0 -0.2139,0c-0.10695,0 -0.2139,0 -0.2139,0c0,0.10695 -0.24523,0.03133 -0.32086,0.10695c-0.07563,0.07563 -0.10695,0.10695 -0.10695,0.10695c-0.10695,0 -0.10695,0.10695 -0.2139,0.10695c-0.10695,0 -0.13828,0.13828 -0.2139,0.2139c-0.07563,0.07563 -0.1696,-0.0443 -0.32086,0.10695c-0.07563,0.07563 0.07563,0.24523 0,0.32086c-0.07563,0.07563 -0.10695,0 -0.10695,0.10695c0,0.10695 -0.10695,0.2139 -0.10695,0.32086c0,0 0.15125,0.27655 0,0.42781c-0.07563,0.07563 -0.13828,0.03133 -0.2139,0.10695c-0.15125,0.15125 0,0.42781 0,0.53476c0,0.10695 0.06602,0.22204 0.10695,0.32086c0.11576,0.27948 0.2139,0.32086 0.2139,0.32086c0.10695,0 0.10695,0.10695 0.2139,0.2139c0.10695,0.10695 0.18112,0.26297 0.32086,0.32086c0.09881,0.04093 0.26297,0.18112 0.32086,0.32086c0.04093,0.09881 0.2139,0.2139 0.42781,0.42781l0.10695,0.10695l0.2139,0.2139" id="svg_6" fill="none"/>
  <path stroke-width="2" d="m3.51337,7.38235c0,-0.32086 0.0038,-0.15997 0.32086,0.32086c0.16653,0.25254 0.32086,0.42781 0.42781,0.64171c0.10695,0.2139 0.03133,0.35218 0.10695,0.42781c0.07563,0.07563 0.10981,-0.02457 0.2139,0c0.23275,0.05495 0.22204,0.38688 0.32086,0.42781c0.13974,0.05788 0.27993,0.22205 0.32086,0.32086c0.05788,0.13974 0.13828,0.13828 0.2139,0.2139c0.07563,0.07563 0.17298,0.00814 0.2139,0.10695c0.05788,0.13974 0.11509,0.17298 0.2139,0.2139c0.27948,0.11576 0.57614,0.73985 0.85562,0.85561c0.09881,0.04093 0.13828,0.03133 0.2139,0.10695c0.07563,0.07563 -0.07563,0.24523 0,0.32086c0.07563,0.07563 0.15602,-0.03279 0.2139,0.10695c0.04093,0.09881 0.13828,0.24523 0.2139,0.32086c0.07563,0.07563 -0.04093,0.22205 0,0.32086c0.05788,0.13974 0.13828,0.13828 0.2139,0.2139c0.07563,0.07563 0.2139,0.10695 0.2139,0.2139c0,0 0.13828,0.03133 0.2139,0.10695c0.07563,0.07563 0.15602,0.18112 0.2139,0.32086c0.04093,0.09881 0.11509,0.06602 0.2139,0.10695c0.27948,0.11576 0.2139,0.42781 0.32086,0.53476c0.10695,0.10695 0.13828,0.24523 0.2139,0.32086c0.07563,0.07563 0.26297,0.07416 0.32086,0.2139c0.04093,0.09881 0.2139,0.2139 0.2139,0.2139c0,0 0.10695,0.10695 0.2139,0.2139c0.2139,0.2139 0.32086,0.32086 0.53476,0.53476c0.10695,0.10695 0.21677,0.18933 0.32086,0.2139c0.23275,0.05495 0.55073,0.47853 0.64171,0.53476c0.20343,0.12573 0.2139,0.2139 0.42781,0.2139c0,0 0.00814,0.04093 0.10695,0c0.13974,-0.05788 0.06265,-0.1696 0.2139,-0.32086c0.07563,-0.07563 0.03133,-0.24523 0.10695,-0.32086c0.07563,-0.07563 0.10695,-0.2139 0.10695,-0.2139c0.2139,-0.10695 0.32086,-0.2139 0.42781,-0.2139c0.10695,0 0.32224,-0.19677 0.42781,-0.2139c0.33385,-0.05418 0.28807,-0.26297 0.42781,-0.32086c0.09881,-0.04093 0.12685,-0.07407 0.32086,-0.2139c0.1227,-0.08844 0.2139,-0.10695 0.32086,-0.10695c0.10695,0 0.18112,-0.26297 0.32086,-0.32086c0.09881,-0.04093 0.2139,-0.10695 0.2139,-0.2139c0,-0.10695 0.10695,-0.10695 0.10695,-0.10695c0.10695,0 0.11742,-0.08817 0.32086,-0.2139c0.09098,-0.05623 0.03133,-0.24523 0.10695,-0.32086c0.07563,-0.07563 0.12292,-0.05072 0.2139,-0.10695c0.20343,-0.12573 0.10695,-0.2139 0.10695,-0.2139c0.10695,-0.2139 0.06265,-0.38351 0.2139,-0.53476c0.07563,-0.07563 0.2139,0 0.2139,0c0.10695,-0.10695 0.13828,-0.13828 0.2139,-0.2139c0.07563,-0.07563 0.08817,-0.01047 0.2139,-0.2139c0.05623,-0.09098 0.10695,-0.10695 0.10695,-0.2139c0,-0.10695 -0.11246,-0.24585 0,-0.42781c0.12573,-0.20344 0.21391,-0.10695 0.21391,-0.2139c0,-0.10695 0.10695,-0.10695 0.10695,-0.2139c0,-0.10695 0.09814,-0.04138 0.2139,-0.32086c0.04093,-0.09881 0.15602,-0.18112 0.2139,-0.32086c0.08186,-0.19762 0.03133,-0.24523 0.10695,-0.32086c0.07563,-0.07563 0.17297,-0.00814 0.2139,-0.10695c0.05788,-0.13974 0.10695,-0.2139 0.10695,-0.32086c0,0 0.03132,-0.13828 0.10695,-0.2139c0.15125,-0.15125 0.13828,-0.13828 0.2139,-0.2139c0.07563,-0.07563 0.10695,0 0.10695,0c0.2139,-0.10695 0.32086,-0.10695 0.42781,-0.10695c0,0 0.13828,0.07563 0.2139,0c0.07563,-0.07563 0.21391,-0.10695 0.21391,-0.2139c0,-0.10695 0.13828,-0.03132 0.2139,-0.10695c0.07563,-0.07563 -0.0443,-0.1696 0.10695,-0.32086c0.07563,-0.07563 0.03133,-0.03133 0.10695,-0.10695c0.07563,-0.07563 0.10695,0 0.10695,-0.10695c0,-0.10695 0,-0.2139 0,-0.32086c0,-0.10695 0.2139,-0.10695 0.2139,-0.2139c0,-0.10695 0,-0.2139 0,-0.32086c0,-0.10695 0,-0.2139 0,-0.32086c0,0 0,-0.2139 0,-0.32086c0,-0.10695 0,-0.10695 0,-0.2139c0,-0.10695 0,-0.2139 -0.10695,-0.32086c0,0 0.05623,-0.12293 0,-0.2139c-0.12573,-0.20343 -0.2139,-0.2139 -0.2139,-0.32086c0,-0.10695 0,-0.2139 0,-0.32086c0,0 0,-0.10695 0,-0.2139c0,-0.10695 0,-0.2139 0,-0.32086c0,-0.2139 -0.11509,-0.27993 -0.2139,-0.32086c-0.13974,-0.05788 -0.2139,-0.2139 -0.2139,-0.32086c0,-0.10695 -0.13828,-0.03133 -0.21391,-0.10695c-0.07563,-0.07563 -0.04907,-0.18112 -0.10695,-0.32086c-0.04093,-0.09881 -0.10695,-0.10695 -0.10695,-0.2139c0,-0.10695 -0.07416,-0.26297 -0.2139,-0.32086c-0.09881,-0.04093 -0.10695,-0.10695 -0.2139,-0.2139c-0.10695,-0.10695 -0.18112,-0.15602 -0.32086,-0.2139c-0.09881,-0.04093 -0.0881,-0.15896 -0.32085,-0.2139c-0.20818,-0.04915 -0.21391,0 -0.32086,0c-0.10695,0 -0.2139,0 -0.32086,0c0,0 -0.10981,0.02457 -0.2139,0c-0.23275,-0.05495 -0.30201,-0.15896 -0.53476,-0.2139c-0.10409,-0.02457 -0.2139,0 -0.32086,0c-0.10695,0 -0.2139,0 -0.2139,0c-0.10695,0.10695 -0.13828,0.13828 -0.2139,0.2139c-0.07563,0.07563 -0.2139,0 -0.2139,0c0,0.2139 -0.27656,0.06265 -0.42781,0.2139c-0.07563,0.07563 -0.00814,0.06602 -0.10695,0.10695c-0.13974,0.05788 -0.26297,0.07416 -0.32086,0.2139c-0.04093,0.09881 0,0.10695 0,0.10695c-0.10695,0 -0.13828,0.03133 -0.2139,0.10695c-0.07563,0.07563 -0.13828,0.13828 -0.2139,0.2139c-0.07563,0.07563 -0.10695,0.10695 -0.10695,0.10695c-0.2139,0 -0.24523,0.13828 -0.32086,0.2139c-0.07563,0.07563 -0.13828,0.03133 -0.2139,0.10695c-0.07563,0.07563 -0.10695,0.10695 -0.10695,0.10695c-0.10695,0 -0.11267,-0.04914 -0.32086,0c-0.23275,0.05495 -0.2139,0.2139 -0.32086,0.2139c-0.10695,0 -0.24523,-0.07563 -0.32086,0c-0.15125,0.15125 -0.13828,0.13828 -0.2139,0.2139c-0.07563,0.07563 -0.10695,0.10695 -0.2139,0.10695c0,0 -0.13828,-0.07563 -0.2139,0c-0.07563,0.07563 -0.03133,0.13828 -0.10695,0.2139c-0.07563,0.07563 -0.13828,0.03133 -0.2139,0.10695c-0.07563,0.07563 -0.2139,0 -0.32086,0c0,0 0,0 0,0.10695l-0.10695,0l-0.10695,0.10695l0,-0.10695" id="svg_7" stroke="#000000" fill="none"/>
  <path d="m1.69519,5.77808c0.10695,0.10695 0.15896,0.30201 0.2139,0.53476c0.02457,0.10409 0.10695,0.10695 0.2139,0.32086c0.2139,0.42781 0.15768,0.44378 0.2139,0.53476c0.12573,0.20343 0.13828,0.24523 0.2139,0.32086c0.07563,0.07563 0.19513,0.01047 0.32086,0.2139c0.05623,0.09098 0.2139,0.2139 0.2139,0.2139c0,0.10695 -0.05623,0.22988 0,0.32086c0.12573,0.20343 0.15768,0.12292 0.2139,0.2139c0.12573,0.20343 0.2139,0.2139 0.2139,0.32086c0,0 0.06265,0.27655 0.2139,0.42781c0.15125,0.15125 0.26591,0.0881 0.32086,0.32086c0.02457,0.10409 0.18933,0.10981 0.2139,0.2139c0.05495,0.23275 0.2139,0.32086 0.2139,0.32086c0.2139,0.10695 0.32086,0.32086 0.32086,0.32086c0.10695,0.10695 0.26297,0.18112 0.32086,0.32086c0.04093,0.09881 0.10695,0.2139 0.10695,0.2139c0.2139,0 0.27655,0.06265 0.42781,0.2139c0.15125,0.15125 -0.03279,0.26297 0.10695,0.32086c0.09881,0.04093 0.1696,-0.0443 0.32086,0.10695c0.15125,0.15125 0.10695,0.2139 0.10695,0.32086l0.2139,0.10695l0,0.10695" id="svg_8" stroke="#000000" fill="none"/>
  <path d="m4.58289,7.70321c-0.10695,0 -0.06265,-0.06265 -0.2139,-0.2139c-0.07563,-0.07563 -0.2139,0 -0.32086,0c-0.10695,0 -0.10695,0.32086 -0.10695,0.42781c0,0 0,0.10695 0,0.2139l0,0.10695l-0.10695,0" id="svg_9" stroke="#000000" fill="none"/>
  <path d="m1.69519,6.52674c0.10695,0 0.13828,0.03133 0.2139,0.10695c0.07563,0.07563 0.07407,0.12685 0.2139,0.32086c0.08844,0.1227 0.10695,0.2139 0.10695,0.32086c0,0.10695 0.03133,0.13828 0.10695,0.2139c0.07563,0.07563 0.08817,0.11742 0.2139,0.32086c0.05623,0.09098 0.03133,0.03133 0.10695,0.10695c0.15125,0.15125 0.07416,0.36993 0.2139,0.42781c0.09881,0.04093 0.2139,0 0.2139,0.10695c0,0.10695 0.07416,0.26297 0.2139,0.32086c0.09881,0.04093 0.17298,0.11509 0.2139,0.2139c0.05788,0.13974 0.18112,0.15602 0.32086,0.2139c0.09881,0.04093 0.10695,0 0.2139,0.10695l0,-0.10695l0,-0.10695" id="svg_10" stroke="#000000" fill="none"/>
  <path d="m5.33155,11.33957c0.2139,0 0.26297,0.07416 0.32086,0.2139c0.08186,0.19762 0.10695,0.2139 0.10695,0.2139c0.2139,0.10695 0.24523,0.13828 0.32086,0.2139c0.07563,0.07563 0.15768,0.22988 0.2139,0.32086c0.12573,0.20343 0.27655,-0.0443 0.42781,0.10695c0.07563,0.07563 -0.13828,0.18258 -0.2139,0.10695c-0.15125,-0.15125 0,-0.32086 -0.10695,-0.42781c-0.10695,-0.10695 -0.34301,-0.30256 -0.42781,-0.42781c-0.45664,-0.67448 -0.6829,-1.21626 -0.96257,-1.60428c-0.17688,-0.24541 -0.52167,-0.64877 -0.64171,-0.85562c-0.19355,-0.33353 -0.36993,-0.39502 -0.42781,-0.53476c-0.12279,-0.29643 -0.36993,-0.60892 -0.42781,-0.74866c-0.04093,-0.09881 -0.10695,-0.2139 -0.32086,-0.42781c-0.10695,-0.10695 -0.2338,-0.39492 -0.42781,-0.53476c-0.1227,-0.08844 -0.14157,-0.26954 -0.32086,-0.42781c-0.28909,-0.2552 -0.32086,-0.53476 -0.32086,-0.64171c0,-0.10695 -0.13828,-0.13828 -0.2139,-0.2139c-0.07563,-0.07563 -0.27179,-0.07416 -0.2139,-0.2139c0.04093,-0.09881 0.2139,0 0.32086,0c0.10695,0 0.13828,-0.03133 0.2139,-0.10695c0.07563,-0.07563 0.1389,-0.10145 0.32086,-0.2139c0.20343,-0.12573 0.2139,-0.2139 0.32086,-0.2139c0.10695,0 0.13828,-0.03133 0.2139,-0.10695c0.15125,-0.15125 0.2139,-0.32086 0.2139,-0.32086c0,-0.10695 0.13828,-0.24523 0.2139,-0.32086c0.07563,-0.07563 0.10695,-0.10695 0.10695,-0.10695c0.10695,0 0.10695,-0.2139 0.2139,-0.2139c0.10695,0 0.10695,-0.10695 0.10695,-0.10695c0,-0.10695 0.10695,-0.10695 0.10695,-0.10695c0,-0.10695 -0.07563,-0.24523 0,-0.32086c0.15125,-0.15125 0.2139,-0.10695 0.2139,-0.10695c0,-0.10695 0,-0.32086 0,-0.42781c0,0 0,-0.10695 0,-0.2139c0,-0.10695 0,-0.2139 0,-0.2139c0.10695,0 0.10695,0 0.2139,0c0.10695,0 0.2139,0 0.32086,0c0,0 0.2139,0 0.32086,0c0.10695,0 0.10695,0 0.2139,0c0.10695,0 0.22204,0.06602 0.32086,0.10695c0.13974,0.05788 0.2139,0.10695 0.32086,0.10695c0.10695,0 0.11509,-0.04093 0.2139,0c0.13974,0.05788 0.2139,0.10695 0.32086,0.2139c0,0 0.11509,0.06602 0.2139,0.10695c0.13974,0.05788 0.10981,0.18933 0.2139,0.2139c0.23275,0.05495 0.2139,0.2139 0.42781,0.2139c0.10695,0 0.10695,0.2139 0.2139,0.2139c0.10695,0 0.2139,0.10695 0.32086,0.10695c0,0 0.2139,0 0.32086,0c0,0 0.10695,0 0.2139,0c0.10695,0 0.2139,0 0.2139,0c0,0 0,-0.10695 0,-0.2139c0,-0.10695 0.03279,-0.26297 -0.10695,-0.32086c-0.09881,-0.04093 -0.24523,0.07563 -0.32086,0c-0.15125,-0.15125 -0.13828,-0.13828 -0.2139,-0.2139c-0.07563,-0.07563 -0.13828,-0.03133 -0.2139,-0.10695c-0.07563,-0.07563 -0.11509,-0.17298 -0.2139,-0.2139c-0.13974,-0.05788 -0.2139,-0.10695 -0.32086,-0.10695c-0.10695,0 -0.32086,0 -0.42781,0c-0.10695,0 -0.2139,0 -0.32086,0c0,0 0,0.10695 -0.10695,0.32086c0,0 -0.03133,0.13828 -0.10695,0.2139c-0.07563,0.07563 -0.13828,0.13828 -0.2139,0.2139c-0.07563,0.07563 -0.18112,0.15602 -0.32086,0.2139c-0.09881,0.04093 -0.2139,0.10695 -0.42781,0.2139c0,0 -0.10695,0.10695 -0.10695,0.2139c0,0.10695 0,0.2139 0,0.2139c0,0.10695 0,0.2139 0,0.42781c0,0.10695 -0.07372,0.32944 0,0.64171c0.05495,0.23275 0.26297,0.50197 0.32086,0.64171c0.08186,0.19762 0.02509,0.23019 0.10695,0.42781c0.05788,0.13974 0.10145,0.1389 0.2139,0.32086c0.12573,0.20343 0.2139,0.10695 0.2139,0.2139c0,0.10695 0.13828,0.13828 0.2139,0.2139c0.07563,0.07563 0.22204,0.27993 0.32086,0.32086c0.13974,0.05788 0.13828,0.13828 0.2139,0.2139c0.07563,0.07563 0.13309,-0.21551 0.10695,-0.42781c-0.05388,-0.43767 -0.05072,-0.76464 -0.10695,-0.85562c-0.12573,-0.20343 -0.2139,-0.2139 -0.2139,-0.42781c0,0 0.16742,-0.23005 -0.10695,-0.42781c-0.17353,-0.12507 -0.36993,-0.18112 -0.42781,-0.32086c-0.04093,-0.09881 -0.11509,-0.17297 -0.2139,-0.2139c-0.27948,-0.11576 -0.42781,-0.32086 -0.42781,-0.32086c-0.2139,0 -0.32086,0 -0.42781,0c-0.2139,0 -0.2139,0 -0.32086,0c-0.10695,0 -0.26591,-0.01885 -0.32086,0.2139c-0.04914,0.20818 0,0.32086 0,0.53476c0,0.10695 0,0.32086 0,0.53476c0,0.10695 0.23242,0.3051 0.32086,0.42781c0.13983,0.19401 0.07416,0.47688 0.2139,0.53476c0.09881,0.04093 0.2139,0.2139 0.32086,0.32086c0.2139,0.2139 0.35218,0.35218 0.42781,0.42781c0.07563,0.07563 0.15175,0.0448 0.32086,0.2139c0.16911,0.16911 0.22437,0.40903 0.42781,0.53476c0.18196,0.11246 0.41206,0.12546 0.53476,0.2139c0.19401,0.13983 0.40896,0.26591 0.64171,0.32086c0.10409,0.02457 0.2139,0 0.2139,0c0.2139,0 0.42781,0.2139 0.53476,0.2139c0.2139,0 0.25528,0.09814 0.53476,0.2139c0.09881,0.04093 0.22205,0.04093 0.32086,0c0.13974,-0.05788 0.10695,-0.32086 0.10695,-0.42781c0,-0.42781 -0.18229,-0.75022 -0.2139,-1.06952c-0.05374,-0.5427 -0.2263,-0.74479 -0.32086,-1.06952c-0.12329,-0.42339 -0.31792,-0.81791 -0.42781,-1.28342c-0.09829,-0.41636 -0.04907,-0.50197 -0.10695,-0.64171c-0.04093,-0.09881 -0.03195,-0.10145 -0.2139,-0.2139c-0.20343,-0.12573 -0.10981,-0.40323 -0.2139,-0.42781c-0.23275,-0.05495 -0.31606,0.37959 -0.42781,0.74866c-0.09298,0.30709 -0.10695,0.53476 -0.10695,0.85561c0,0.42781 -0.2139,0.96257 -0.2139,1.39037c0,0.32086 -0.02108,0.7497 0,0.96257c0.05374,0.5427 0.27171,0.96829 0.32086,1.17647c0.10989,0.46551 0.26591,0.62286 0.32086,0.85562c0.02457,0.10409 0.10695,0.42781 0.10695,0.53476c0,0.2139 0.01047,0.40903 0.2139,0.53476c0.09098,0.05623 0.2139,0.2139 0.2139,0.2139c0.10695,0 0.19677,-0.00138 0.2139,-0.10695c0.10835,-0.66769 0.59257,-0.96829 0.64171,-1.17647c0.10989,-0.46551 0.37393,-0.84575 0.42781,-1.28342c0.05227,-0.4246 0,-0.74866 0,-1.17647c0,-0.32086 0.16372,-0.56732 0,-0.96257c-0.05788,-0.13974 -0.06602,-0.22204 -0.10695,-0.32086c-0.05788,-0.13974 -0.10695,-0.10695 -0.2139,-0.2139c-0.10695,-0.10695 -0.18102,-0.2338 -0.32086,-0.42781c-0.08844,-0.1227 -0.32086,-0.32086 -0.32086,-0.32086c-0.2139,0 -0.32086,0 -0.32086,0.2139c0,0.2139 0,0.64171 0,1.06952c0,0.42781 0,0.64171 0,1.06952c0,0.53476 -0.06577,0.6815 0.2139,1.06952c0.17688,0.24541 0.2338,0.39493 0.42781,0.53476c0.1227,0.08844 0.17298,0.09881 0.2139,0c0.05788,-0.13974 0.25509,-0.4676 0.53476,-0.85562c0.08844,-0.1227 0.18933,-0.43067 0.2139,-0.53476c0.05495,-0.23275 0.10695,-0.32086 0.10695,-0.42781c0,-0.10695 0,-0.32086 0,-0.42781c0,-0.2139 0,-0.42781 0,-0.64171c0,-0.2139 -0.10695,-0.32086 -0.10695,-0.42781c0,-0.10695 -0.07417,-0.26297 -0.2139,-0.32086c-0.09881,-0.04093 -0.14387,0.33978 -0.32086,0.85562c-0.07761,0.22621 -0.22137,0.85441 -0.32086,1.49733c-0.11565,0.74737 -0.10695,1.60428 -0.10695,2.35294c0,0.64171 0,1.06952 0,1.49733c0,0.32086 0.17298,0.43595 0.2139,0.53476c0.05788,0.13974 0.2139,0.2139 0.32086,0.2139c0.10695,0 0.10695,0.10695 0.2139,0.2139c0.10695,0.10695 0.2139,0.2139 0.32086,0.2139c0,0 0.07416,0.15602 0.2139,0.2139c0.09881,0.04093 0.17297,0.00814 0.2139,0.10695c0.05788,0.13974 0.27656,-0.0443 0.42781,0.10695c0.07563,0.07563 0.12323,0.02509 0.32086,0.10695c0.13974,0.05788 0.10695,0.10695 0.2139,0.10695c0.2139,0 0.32086,0 0.42781,0c0.10695,0 0.2139,0 0.32086,-0.10695c0,0 0.04792,0.06173 0.32086,-0.10695c0.20343,-0.12573 0.13205,-0.23019 0.2139,-0.42781c0.05788,-0.13974 0.26297,-0.07416 0.32086,-0.2139c0.04093,-0.09881 -0.07563,-0.13828 0,-0.2139c0.07563,-0.07563 0.30208,-0.01047 0.42781,-0.2139c0.05623,-0.09098 0.27655,-0.06265 0.42781,-0.2139c0.22688,-0.22688 0,-0.42781 0,-0.42781c0.2139,-0.10695 0.30208,-0.11742 0.42781,-0.32086c0.05623,-0.09098 0,-0.10695 0.10695,-0.2139c0.10695,-0.10695 0.24523,-0.03133 0.32086,-0.10695c0.07563,-0.07563 -0.03279,-0.15602 0.10695,-0.2139c0.09881,-0.04093 0.21676,-0.29628 0.32086,-0.32086c0.23275,-0.05495 0.23019,-0.239 0.42781,-0.32086c0.13974,-0.05788 0.10695,-0.2139 0.2139,-0.2139c0.10695,0 0.13828,-0.03133 0.2139,-0.10695c0.07563,-0.07563 0.18112,-0.04907 0.32086,-0.10695c0.09881,-0.04093 0.10695,-0.2139 0.10695,-0.2139c0,0 0.09398,0.11993 0.32086,-0.10695c0.07563,-0.07563 0.10695,-0.10695 0.10695,-0.2139c0,-0.10695 0,-0.10695 0,-0.32086c0,-0.10695 0,-0.2139 0,-0.32086c0,-0.2139 0,-0.32086 0,-0.32086c0,-0.2139 0,-0.32086 0,-0.42781c0,0 0.10695,0 0.10695,-0.10695c0,-0.10695 0.13828,-0.24523 0.2139,-0.32086c0.07563,-0.07563 0.13828,0.07563 0.2139,0c0.15125,-0.15125 0.10695,-0.2139 0.2139,-0.2139c0.10695,0 0.10695,-0.2139 0.2139,-0.2139c0.10695,0 0.2139,0 0.2139,0c0,-0.10695 0.10695,-0.10695 0.10695,-0.2139c0,-0.10695 0.10695,-0.10695 0.10695,-0.2139c0,0 0.03132,-0.03133 0.10695,-0.10695c0.07563,-0.07563 0.13828,-0.03133 0.2139,-0.10695c0.15125,-0.15125 -0.03279,-0.26297 0.10695,-0.32086c0.09881,-0.04093 0.10695,-0.10695 0.32086,-0.2139c0,0 0.13828,0.07563 0.2139,0c0.07563,-0.07563 0.10695,-0.10695 0.2139,-0.10695c0,0 -0.07563,-0.03133 0,-0.10695c0.07563,-0.07563 0.14788,-0.11509 0.10695,-0.2139c-0.05788,-0.13974 -0.24523,-0.13828 -0.32086,-0.2139c-0.07563,-0.07563 -0.13828,-0.13828 -0.2139,-0.2139c-0.07563,-0.07563 -0.10695,-0.10695 -0.21391,-0.10695c-0.10695,0 -0.2139,0 -0.2139,0c-0.10695,0 -0.32899,-0.06602 -0.42781,-0.10695c-0.13974,-0.05788 -0.42781,-0.10695 -0.42781,-0.10695c-0.2139,0 -0.35218,0.07563 -0.42781,0c-0.07563,-0.07563 -0.01628,-0.13205 -0.2139,-0.2139c-0.13974,-0.05788 -0.26297,-0.18112 -0.32085,-0.32086c-0.04093,-0.09881 -0.21391,-0.10695 -0.21391,-0.2139c0,-0.10695 -0.10695,-0.2139 -0.10695,-0.2139c-0.10695,-0.10695 -0.1696,0.0443 -0.32086,-0.10695c-0.07563,-0.07563 -0.10695,-0.10695 -0.2139,-0.10695c-0.10695,0 -0.26297,0.03279 -0.32086,-0.10695c-0.04093,-0.09881 -0.13828,-0.03133 -0.2139,-0.10695c-0.07563,-0.07563 -0.06265,0.0443 -0.2139,-0.10695c-0.15125,-0.15125 -0.07417,-0.26297 -0.2139,-0.32086c-0.19762,-0.08186 -0.2139,-0.10695 -0.2139,-0.10695c0,0 -0.05201,0.19505 -0.10695,0.42781c-0.02457,0.10409 -0.2139,0.32086 -0.2139,0.53476c0,0.2139 -0.10695,0.32086 -0.10695,0.32086c0,0.10695 -0.2139,0.32086 -0.2139,0.42781c0,0.10695 -0.17297,0.11509 -0.2139,0.2139c-0.05788,0.13974 -0.15602,0.18112 -0.2139,0.32086c-0.04093,0.09881 -0.06602,0.11509 -0.10695,0.2139c-0.05788,0.13974 -0.11509,0.06602 -0.2139,0.10695c-0.13974,0.05788 -0.22205,0.17298 -0.32086,0.2139c-0.13974,0.05788 -0.24585,0.10145 -0.42781,0.2139c-0.20343,0.12573 -0.35218,0.24523 -0.42781,0.32086c-0.07563,0.07563 -0.12546,0.0912 -0.2139,0.2139c-0.13983,0.19401 -0.2139,0.32086 -0.2139,0.32086c0,0.10695 -0.03133,0.24523 -0.10695,0.32086c-0.07563,0.07563 -0.10695,0.10695 -0.10695,0.10695c0,0.10695 0,0.32086 0,0.42781c0,0 -0.02509,0.01628 -0.10695,0.2139c-0.05788,0.13974 -0.10695,0.2139 -0.10695,0.42781c0,0.2139 0,0.32086 0,0.53476c0,0.10695 0,0.42781 0,0.53476c0,0 -0.03133,0.13828 -0.10695,0.2139c-0.07563,0.07563 -0.10695,0.2139 -0.10695,0.2139c0,0.10695 0,0.2139 0,0.32086c0,0.10695 -0.10695,0.10695 -0.10695,0.2139c0,0.10695 -0.10695,0.2139 -0.10695,0.32086c0,0.2139 0,0.42781 0,0.42781c0.10695,0 0.07416,0.15602 0.2139,0.2139c0.09881,0.04093 0.10695,0.10695 0.2139,0.2139c0,0 0.11509,-0.04093 0.2139,0c0.13974,0.05788 0.2139,0.10695 0.2139,0.10695c0.10695,0.10695 0.32086,0.10695 0.42781,0.10695c0,0 0.12323,-0.02509 0.32086,-0.10695c0.13974,-0.05788 0.34075,-0.28797 0.53476,-0.42781c0.1227,-0.08844 0.14305,-0.14011 0.32086,-0.42781c0.07952,-0.12866 0.04138,-0.419 0.32086,-0.53476c0.19762,-0.08186 0.28797,-0.12685 0.42781,-0.32086c0.17688,-0.24541 0.26591,-0.302 0.32086,-0.53476c0.04914,-0.20818 0.10695,-0.32086 0.2139,-0.42781c0.10695,-0.10695 0.12685,-0.28797 0.32086,-0.42781c0.1227,-0.08844 0.11742,-0.51598 0.32086,-0.64171c0.09098,-0.05623 0.10695,-0.2139 0.2139,-0.42781c0.10695,-0.2139 0.10695,-0.2139 0.2139,-0.2139c0.10695,0 0.03133,-0.13828 0.10695,-0.2139c0.15125,-0.15125 0.2139,-0.10695 0.2139,-0.2139c0,-0.10695 0.19513,-0.11742 0.32086,-0.32086c0.05623,-0.09098 0,-0.10695 0.10695,-0.2139c0,0 0.03132,-0.03133 0.10695,-0.10695c0.07563,-0.07563 0.10695,-0.10695 0.10695,-0.2139c0,0 0.15125,-0.27656 0,-0.42781c-0.07563,-0.07563 -0.2139,-0.10695 -0.2139,-0.2139c0,0 0,-0.2139 -0.10695,-0.2139c-0.10695,0 -0.1696,0.0443 -0.32086,-0.10695c-0.07563,-0.07563 -0.0881,-0.26591 -0.32086,-0.32086c-0.10409,-0.02457 -0.10695,-0.10695 -0.10695,-0.2139c0,-0.10695 -0.15768,-0.22988 -0.2139,-0.32086c-0.12573,-0.20343 -0.13828,-0.24523 -0.2139,-0.32086c-0.07563,-0.07563 -0.10695,-0.10695 -0.10695,-0.2139c0,-0.10695 -0.03133,-0.13828 -0.10695,-0.2139c-0.15125,-0.15125 -0.2139,-0.10695 -0.2139,-0.2139c0,-0.10695 0,-0.2139 0,-0.32086c0,-0.10695 -0.10695,-0.10695 -0.10695,0c0,0.10695 -0.17298,0.11509 -0.2139,0.2139c-0.05788,0.13974 -0.10695,0.2139 -0.2139,0.32086c-0.10695,0.10695 -0.2139,0.2139 -0.32086,0.42781c0,0 -0.2139,0 -0.32086,0.10695c-0.10695,0.10695 -0.07416,0.26297 -0.2139,0.32086c-0.09881,0.04093 -0.10695,0.10695 -0.2139,0.2139c-0.10695,0.10695 -0.10695,0.2139 -0.10695,0.2139c0,0 -0.12546,0.0912 -0.2139,0.2139c-0.13983,0.19401 -0.18112,0.26297 -0.32086,0.32086c-0.09881,0.04093 -0.2139,0.2139 -0.32086,0.2139c0,0 -0.07416,0.04907 -0.2139,0.10695c-0.09881,0.04093 -0.2139,0 -0.42781,0c-0.2139,0 -0.32086,0 -0.53476,0c-0.10695,0 -0.2139,0 -0.32086,0c-0.10695,0 -0.13753,0.12959 0.10695,0.42781c0.09589,0.11697 0.27111,0.24714 0.42781,0.42781c0.2216,0.2555 0.20509,0.36223 0.32086,0.64171c0.04093,0.09881 0.06265,0.06265 0.2139,0.2139c0.07563,0.07563 0.05072,0.33683 0.10695,0.42781c0.12573,0.20343 0.26591,0.19505 0.32086,0.42781c0.02457,0.10409 0.05278,0.20091 0.10695,0.53476c0.01713,0.10557 0,0.2139 0.10695,0.2139c0.2139,0 0.32086,0 0.53476,0c0.10695,0 0.10695,-0.10695 0.2139,-0.10695c0.10695,0 0.13828,-0.13828 0.2139,-0.2139c0.07563,-0.07563 0.36111,0.09836 0.53476,-0.32086c0.04093,-0.09881 0.14814,-0.4676 0.42781,-0.85562c0.08844,-0.1227 0.0896,-0.62436 0.42781,-0.96257c0.16911,-0.16911 0.42781,-0.32086 0.42781,-0.42781c0,-0.10695 0.10695,-0.32086 0.10695,-0.42781c0,-0.10695 -0.10695,-0.2139 -0.10695,-0.32086c0,0 -0.11509,-0.04093 -0.2139,0c-0.13974,0.05788 -0.30496,0.0727 -0.53476,0.32086c-0.29962,0.32355 -0.25887,0.65089 -0.32086,0.85562c-0.11175,0.36907 -0.42781,0.42781 -0.64171,0.85562c0,0 -0.13828,0.35218 -0.2139,0.42781c-0.22688,0.22688 -0.13828,0.35218 -0.2139,0.42781c-0.07563,0.07563 0,0.32086 0,0.42781c0,0.2139 -0.2139,0.32086 -0.2139,0.42781c0,0 0,0.10695 0.10695,0.42781c0,0 0.04907,0.28807 0.10695,0.42781c0.04093,0.09881 0.06265,0.27655 0.2139,0.42781c0.15125,0.15125 0.11934,0.32472 0.2139,0c0.12329,-0.42339 0.42781,-0.85562 0.64171,-1.06952c0.2139,-0.2139 0.33285,-0.31212 0.64171,-0.74866c0.22272,-0.3148 0.49134,-0.58963 0.74866,-0.74866c0.2877,-0.17781 0.33132,-0.40903 0.53476,-0.53476c0.09098,-0.05623 0.36993,-0.18112 0.42781,-0.32086c0.08186,-0.19762 0.07407,-0.2338 0.2139,-0.42781c0.17688,-0.24541 0.23242,-0.3051 0.32086,-0.42781c0.13983,-0.19401 0.13828,-0.24523 0.2139,-0.32086c0.07563,-0.07563 0.11509,0.04093 0.2139,0c0.13974,-0.05788 0.24523,-0.03133 0.32086,-0.10695c0.07563,-0.07563 0.13828,-0.13828 0.2139,-0.2139c0.07563,-0.07563 0.13828,-0.03133 0.2139,-0.10695c0.07563,-0.07563 0.2139,0 0.32086,0c0.10695,0 0.10695,-0.10695 0.2139,-0.10695c0.10695,0 0.10695,0 0.32086,0c0,0 0.03132,-0.03133 0.10695,-0.10695c0.07563,-0.07563 0.11509,-0.17298 0.2139,-0.2139c0.13974,-0.05788 0.10695,-0.10695 0.21391,-0.10695c0.10695,0 0.2139,0 0.32085,0l-0.10695,0" id="svg_11" stroke-width="2" stroke="#000000" fill="none"/>
  <path d="m9.18182,10.05615c0.10695,0 0.02509,0.01628 0.10695,0.2139c0.11576,0.27948 0.23242,0.19815 0.32086,0.32086c0.13983,0.19401 0.2139,0.32086 0.32086,0.42781c0.32086,0.32086 0.32086,0.32086 0.42781,0.32086c0.10695,0 0.18112,0.15602 0.32086,0.2139c0.09881,0.04093 0.0881,0.05201 0.32086,0.10695c0.20818,0.04914 0.42781,0.10695 0.64171,0.10695c0.10695,0 0.2139,0 0.32086,0c0.10695,0 0.0912,-0.12546 0.2139,-0.2139c0.19401,-0.13983 0.24523,-0.13828 0.32086,-0.2139c0.07563,-0.07563 0.23005,-0.04648 0.42781,-0.32086c0.06254,-0.08676 0,-0.10695 0,-0.2139c0,0 0,-0.10695 0,-0.2139c0,-0.10695 0.10695,-0.10695 0.10695,-0.32086c0,-0.2139 0.02457,-0.32372 0,-0.42781c-0.05495,-0.23275 -0.02509,-0.33714 -0.10695,-0.53476c-0.05788,-0.13974 -0.03133,-0.35218 -0.10695,-0.42781c-0.15125,-0.15125 -0.2139,-0.10695 -0.2139,-0.2139l0,-0.10695l0,-0.10695l0,-0.10695" id="svg_12" stroke-width="2" stroke="#000000" fill="none"/>
  <path d="m3.94118,4.1738c0,0 -0.15602,0.18112 -0.2139,0.32086c-0.08186,0.19762 -0.15896,0.30201 -0.2139,0.53476c-0.02457,0.10409 0,0.2139 0,0.32086c0,0 0,0.10695 0,0.2139c0,0.10695 -0.10695,0.2139 -0.10695,0.2139c0,0.10695 0,0.32086 0.10695,0.42781c0,0 0.10695,0.2139 0.2139,0.2139l0.2139,0l0.32086,0.2139l0.32086,0" id="svg_13" stroke-width="2" stroke="#000000" fill="none"/>
  <path d="m11.21391,7.70321c-0.10695,0 -0.22988,0.05072 -0.32086,0.10695c-0.20343,0.12573 -0.26591,0.51591 -0.32086,0.74866c-0.04914,0.20818 0,0.2139 0,0.32086c0,0.2139 0,0.32086 0,0.32086c0,0.2139 0.10695,0.2139 0.2139,0.2139c0,0 0.10695,0.2139 0.32086,0.2139c0.10695,0 0.11509,-0.04093 0.2139,0c0.13974,0.05788 0.2139,0.10695 0.32086,0.2139c0,0 0.14833,0.09814 0.42781,0.2139c0.09881,0.04093 0.1696,-0.0443 0.32086,0.10695c0.15125,0.15125 0.10695,0.32086 0.10695,0.32086c0.10695,0 0.32086,0 0.42781,-0.2139l0.2139,-0.2139" id="svg_14" stroke-width="2" stroke="#000000" fill="none"/>
  <path d="m16.7754,2.35562c0.10695,0 0.30208,-0.09648 0.42781,0.10695c0.05623,0.09098 0.21391,0.32086 0.21391,0.32086c0.2139,0.10695 0.13828,0.24523 0.2139,0.32086c0.07563,0.07563 0.15602,0.07416 0.2139,0.2139c0.04093,0.09881 0.13828,0.13828 0.2139,0.2139c0.07563,0.07563 0,0.10695 0.10695,0.10695c0.10695,0 0.2139,0.2139 0.32085,0.2139c0,0 0.01047,0.08817 0.2139,0.2139c0.09098,0.05623 0.21391,0 0.21391,0c0.10695,0 0.2139,0 0.32085,0c0.10695,0 0.01047,0.08817 0.21391,0.2139c0.09098,0.05623 0.2139,0 0.32085,0c0,0 0.2139,0 0.42781,0.2139c0,0 0.10695,0 0.2139,0l-0.10695,0" id="svg_15" stroke-width="2" stroke="#000000" fill="none"/>
  <path d="m19.77006,4.28075c0.10695,0 0.22204,-0.04093 0.32086,0c0.13974,0.05788 0.10695,0.2139 0.2139,0.2139l0.10695,0" id="svg_16" stroke-width="2" stroke="#000000" fill="none"/>
  <polyline stroke-linecap="round" id="svg_17" points="20.411767484754733,4.601605020102689 20.51871935090068,4.601605020102689 20.625671217046616,4.601605020102689 " stroke-width="2" stroke="#000000" fill="none"/>
  <polyline stroke-linecap="round" id="svg_18" points="20.625671217046616,5.029412484686453 20.51871935090068,5.029412484686453 " stroke-width="2" stroke="#000000" fill="none"/>
 </g>
</svg>